<?xml version="1.0" encoding="UTF-8"?>
<svg width="682px" height="680px" viewBox="0 0 682 680" version="1.1" xmlns="http://www.w3.org/2000/svg" xmlns:xlink="http://www.w3.org/1999/xlink">
    <title>Group</title>
    <defs>
        <ellipse id="path-1" cx="333" cy="332" rx="333" ry="332"></ellipse>
        <filter x="-2.0%" y="-1.7%" width="103.9%" height="103.9%" filterUnits="objectBoundingBox" id="filter-2">
            <feMorphology radius="0.5" operator="dilate" in="SourceAlpha" result="shadowSpreadOuter1"></feMorphology>
            <feOffset dx="0" dy="2" in="shadowSpreadOuter1" result="shadowOffsetOuter1"></feOffset>
            <feGaussianBlur stdDeviation="3.5" in="shadowOffsetOuter1" result="shadowBlurOuter1"></feGaussianBlur>
            <feColorMatrix values="0 0 0 0 0   0 0 0 0 0   0 0 0 0 0  0 0 0 0.5 0" type="matrix" in="shadowBlurOuter1"></feColorMatrix>
        </filter>
    </defs>
    <g id="Page-1" stroke="none" stroke-width="1" fill="none" fill-rule="evenodd">
        <g id="Artboard" transform="translate(-184.000000, -112.000000)">
            <g id="Group" transform="translate(192.000000, 118.000000)">
                <g id="Oval">
                    <use fill="black" fill-opacity="1" filter="url(#filter-2)" xlink:href="#path-1"></use>
                    <use fill="#FFFFFF" fill-rule="evenodd" xlink:href="#path-1"></use>
                </g>
                <g id="Google__G__Logo" transform="translate(66.000000, 59.000000)" fill-rule="nonzero">
                    <path d="M534.5,279.4 C534.5,260.9 533,242.3 529.8,224.1 L273.1,224.1 L273.1,328.9 L420.1,328.9 C414,362.7 394.4,392.6 365.7,411.6 L365.7,479.6 L453.4,479.6 C504.9,432.2 534.5,362.2 534.5,279.4 Z" id="Path" fill="#4285F4"></path>
                    <path d="M273.1,545.3 C346.5,545.3 408.4,521.2 453.5,479.6 L365.8,411.6 C341.4,428.2 309.9,437.6 273.2,437.6 C202.2,437.6 142,389.7 120.4,325.3 L29.9,325.3 L29.9,395.4 C76.1,487.3 170.2,545.3 273.1,545.3 Z" id="Path" fill="#34A853"></path>
                    <path d="M120.3,325.3 C108.9,291.5 108.9,254.9 120.3,221.1 L120.3,151 L29.9,151 C-8.7,227.9 -8.7,318.5 29.9,395.4 L120.3,325.3 L120.3,325.3 Z" id="Path" fill="#FBBC04"></path>
                    <path d="M273.1,108.7 C311.9,108.1 349.4,122.7 377.5,149.5 L455.2,71.8 C406,25.6 340.7,0.2 273.1,1 C170.2,1 76.1,59 29.9,151 L120.3,221.1 C141.8,156.6 202.1,108.7 273.1,108.7 Z" id="Path" fill="#EA4335"></path>
                </g>
            </g>
        </g>
    </g>
</svg>