<svg width="129" height="125" viewBox="0 0 129 125" fill="none" xmlns="http://www.w3.org/2000/svg">
<path fill-rule="evenodd" clip-rule="evenodd" d="M102.979 65.3583V65.1525C102.604 54.2236 97.6691 44.511 90.0701 37.7553V25.1422L91.7027 25.03C96.3934 28.1178 100.521 31.9541 103.936 36.408L103.955 41.6854C106.188 45.2036 107.914 49.0024 109.134 52.9885L113.092 56.4507C114.237 61.9526 114.425 67.5853 113.674 73.1434L113.036 73.7796L102.979 65.3583Z" fill="white"/>
<path fill-rule="evenodd" clip-rule="evenodd" d="M58.6795 104.642C60.5183 104.923 62.3946 105.054 64.3272 105.054C66.1847 105.054 68.0234 104.923 69.8059 104.661L77.6491 111.229C77.1988 111.36 76.7669 111.491 76.3166 111.604L72.6767 115.44C67.1416 116.376 61.4941 116.376 55.959 115.44L52.3378 111.604C51.8312 111.473 51.3433 111.342 50.8555 111.192L58.6795 104.642Z" fill="white"/>
<path fill-rule="evenodd" clip-rule="evenodd" d="M15.5604 73.6861L15.0162 73.1434C14.2657 67.5854 14.4722 61.9526 15.598 56.4507L19.5572 52.9885C20.7768 49.0024 22.5213 45.2037 24.7354 41.6854L24.7541 36.408C28.169 31.9541 32.2969 28.1178 36.9877 25.03L38.5639 25.1235V37.7928C31.0024 44.5485 26.0863 54.2423 25.7111 65.1525V65.2087L15.5604 73.6861Z" fill="white"/>
<path fill-rule="evenodd" clip-rule="evenodd" d="M58.0674 44.4504H44.8398C44.1644 44.4504 43.526 44.1884 43.0382 43.7018C42.5691 43.234 42.3066 42.5978 42.3066 41.9241V3.09274C42.3066 1.70791 43.4326 0.566406 44.8398 0.566406H83.7731C85.1616 0.566406 86.2871 1.70791 86.2871 3.09274V41.9241C86.2871 42.5978 86.0246 43.234 85.5555 43.7018C85.0865 44.1884 84.4299 44.4504 83.7731 44.4504H70.5451C69.8321 44.4504 69.1754 44.1511 68.7064 43.6084C68.2561 43.0844 68.0496 42.3919 68.1434 41.6995C68.1997 41.2504 68.4062 40.8386 68.7064 40.5018C69.4194 39.772 70.77 38.3498 71.727 37.358C72.9653 36.0854 73.6408 34.3637 73.6408 32.5859C73.6408 27.6267 69.4567 25.2125 64.2969 25.2125C59.137 25.2125 54.9529 27.6267 54.9529 32.5859C54.9529 34.3637 55.6472 36.0854 56.8856 37.358C57.8237 38.3498 59.1748 39.772 59.8878 40.5018C60.2068 40.8386 60.4128 41.2504 60.4691 41.6995C60.563 42.3919 60.3569 43.0844 59.8878 43.6084C59.4375 44.1511 58.7616 44.4504 58.0674 44.4504ZM75.4044 8.87527C74.9729 7.88343 75.0481 6.62973 75.9862 5.73146C76.4928 5.22618 77.1683 4.92664 77.9001 4.90793C77.9376 4.90793 77.9377 4.90793 77.9752 4.90793C79.7202 4.94536 81.2961 6.79811 80.5831 8.72564C80.0765 10.1292 78.3503 10.99 76.868 10.3537C76.7554 10.3163 76.6618 10.2603 76.5492 10.2041L71.4457 14.7889C71.7084 15.4065 71.7647 16.1175 71.4833 16.8287C70.9767 18.2135 69.2693 19.093 67.7682 18.4568C66.6049 17.9702 65.8917 16.6042 66.0981 15.3317L61.5951 12.618C60.8258 13.273 59.6999 13.5538 58.6867 13.1234C58.5742 13.0672 58.4617 13.0111 58.3491 12.955L53.2081 17.6522C53.5083 18.2885 53.5834 19.0371 53.302 19.7856C52.7954 21.1704 51.0875 22.05 49.5865 21.4137C47.9166 20.7026 47.1661 18.2511 48.7235 16.754C49.2301 16.2674 49.9055 15.9866 50.6185 15.9679H50.6937C51.1627 15.9679 51.613 16.1175 52.0258 16.3608L57.2232 11.6264C56.7729 10.6345 56.8668 9.38062 57.7862 8.48235C58.3115 7.99579 58.987 7.69626 59.7188 7.67755H59.7939C61.4075 7.69626 62.9085 9.34327 62.4957 11.1398L66.924 13.7783C67.4306 13.3105 68.0873 13.0299 68.8003 13.0112H68.8749C69.3815 13.0299 69.8694 13.1796 70.301 13.4603L75.4044 8.87527Z" fill="white"/>
<path fill-rule="evenodd" clip-rule="evenodd" d="M13.7997 108.699L1.30322 93.8213C0.402599 92.7546 0.534234 91.1639 1.60373 90.2844C7.55161 85.3065 25.4889 70.2793 31.418 65.3014C31.9433 64.8709 32.6 64.6652 33.2567 64.7214C33.9322 64.7775 34.5517 65.1143 34.9832 65.6196C37.1973 68.2582 41.1751 72.9929 43.4829 75.7251C43.9333 76.2678 44.1205 76.9788 44.0267 77.6712C43.9141 78.3636 43.5016 78.9625 42.9012 79.3368C42.5259 79.5801 42.0753 79.6924 41.625 79.655C40.6118 79.5989 38.6608 79.4678 37.291 79.3742C35.5086 79.262 33.7446 79.8421 32.3749 80.9836C28.566 84.1837 29.3915 88.9182 32.7125 92.8669C36.0336 96.8155 40.5746 98.4624 44.3835 95.2623C45.7532 94.1208 46.616 92.4926 46.8224 90.7147C46.9725 89.3673 47.1789 87.4212 47.2914 86.3919C47.3477 85.9428 47.5354 85.5311 47.8356 85.1942C48.3047 84.6702 48.9801 84.3894 49.6744 84.3894C50.3874 84.4081 51.044 84.7265 51.4943 85.2692C53.8022 88.0014 57.78 92.736 59.994 95.3747C60.4256 95.88 60.6321 96.5536 60.5758 97.2086C60.5195 97.8823 60.2006 98.4997 59.694 98.9302C53.7461 103.908 35.8088 118.917 29.861 123.895C28.8102 124.793 27.2151 124.643 26.3145 123.576L13.7997 108.699ZM27.1024 108.568C26.577 109.073 26.2957 109.541 26.2769 109.971C26.2582 110.402 26.4459 110.851 26.8399 111.319C27.1776 111.73 27.5719 111.974 27.9847 112.086C28.3974 112.18 28.8289 112.049 29.2792 111.674C29.7108 111.3 29.9356 110.926 29.9356 110.552C29.9544 110.159 29.7483 109.709 29.3168 109.204L28.566 108.306L30.1422 106.977L30.9865 107.988C31.6432 108.755 32.3376 108.811 33.1069 108.175C33.257 108.044 33.3883 107.913 33.4821 107.745C33.5759 107.595 33.6319 107.426 33.6507 107.258C33.6694 107.071 33.6511 106.884 33.576 106.678C33.501 106.491 33.3509 106.266 33.1633 106.042C32.8255 105.63 32.4501 105.368 32.0561 105.274C31.6433 105.181 31.1554 105.293 30.5737 105.574L29.3543 103.665C29.8046 103.422 30.2361 103.253 30.6864 103.141C31.118 103.01 31.587 102.991 32.0373 103.066C32.4876 103.122 32.9379 103.29 33.3882 103.571C33.8197 103.833 34.27 104.245 34.7203 104.769C35.1518 105.274 35.452 105.761 35.6397 106.247C35.8461 106.734 35.9402 107.183 35.9402 107.613C35.9214 108.044 35.8273 108.456 35.6397 108.83C35.452 109.204 35.1895 109.522 34.8518 109.822C34.4015 110.177 33.9324 110.402 33.4258 110.495C32.9379 110.589 32.3936 110.533 31.8307 110.308C32.0371 111.001 32.0559 111.6 31.8495 112.124C31.6619 112.648 31.3429 113.097 30.8926 113.471C30.4798 113.826 30.0296 114.089 29.5792 114.257C29.1289 114.444 28.6599 114.5 28.1908 114.444C27.7217 114.388 27.2526 114.219 26.7648 113.939C26.2769 113.658 25.8078 113.228 25.32 112.666C24.7759 112.011 24.4197 111.412 24.2508 110.832C24.082 110.252 24.0256 109.709 24.1194 109.204C24.1944 108.699 24.3633 108.231 24.626 107.819C24.9074 107.389 25.2076 107.033 25.5454 106.715L27.1024 108.568ZM17.1396 99.6975C17.7775 99.7911 18.3967 99.9034 18.9971 100.016C19.5975 100.128 20.2167 100.221 20.8546 100.315C21.4738 100.427 22.0177 100.502 22.5055 100.54C22.9934 100.596 23.4436 100.614 23.8376 100.596C24.2317 100.577 24.5883 100.521 24.8885 100.409C25.2075 100.296 25.5076 100.128 25.7891 99.8846C26.1643 99.5664 26.3709 99.211 26.4272 98.7993C26.5022 98.3876 26.371 98.0133 26.0708 97.6577C25.7143 97.2273 25.3201 96.9653 24.926 96.8904C24.532 96.7968 24.0065 96.9277 23.3498 97.2646L22.0928 95.3372C22.5244 95.094 22.9746 94.9255 23.4249 94.7945C23.8752 94.6448 24.3443 94.6074 24.8134 94.6448C25.2824 94.6823 25.7515 94.8507 26.2206 95.1127C26.6897 95.3747 27.1588 95.7862 27.6466 96.3476C28.4909 97.3582 28.8664 98.3127 28.8101 99.2484C28.7538 100.165 28.3036 100.989 27.4592 101.681C27.1027 101.999 26.7273 102.224 26.3521 102.392C25.958 102.561 25.5454 102.673 25.1139 102.748C24.6635 102.804 24.1757 102.823 23.6503 102.785C23.1062 102.767 22.5058 102.692 21.8303 102.598C21.4926 102.542 21.136 102.467 20.7983 102.411C20.4418 102.336 20.0475 102.28 19.6347 102.224L22.7121 105.892L20.9673 107.015L15.7699 100.839L17.1396 99.6975ZM18.8656 90.6588L16.3512 89.7978L17.0269 87.8891L21.2298 89.2178L22.5243 90.7522L13.5743 98.2378L12.0361 96.3851L18.8656 90.6588Z" fill="white"/>
<path fill-rule="evenodd" clip-rule="evenodd" d="M114.806 108.779L102.291 123.657C101.391 124.724 99.7961 124.854 98.7266 123.956C92.7787 118.978 74.841 103.97 68.9119 99.0106C68.3865 98.5801 68.0676 97.9625 68.0113 97.2888C67.955 96.6338 68.1615 95.9602 68.5931 95.4549C70.8259 92.8162 74.7849 88.0816 77.0928 85.3493C77.5431 84.8066 78.2185 84.4886 78.9127 84.4886C79.6069 84.4698 80.2824 84.7506 80.7515 85.2746C81.0704 85.6115 81.2581 86.0419 81.2957 86.4723C81.4082 87.5016 81.6334 89.4477 81.7835 90.7951C81.9711 92.573 82.8531 94.2012 84.2228 95.3427C88.0317 98.5428 92.5723 96.8959 95.8933 92.9473C99.1956 88.9986 100.04 84.2641 96.231 81.064C94.8613 79.9224 93.0978 79.3423 91.3153 79.4546C89.9456 79.5482 87.9941 79.679 86.9621 79.7352C86.5118 79.7726 86.0616 79.6604 85.6864 79.4172C85.086 79.0429 84.6918 78.444 84.5792 77.7516C84.4666 77.0592 84.6731 76.348 85.1234 75.8053C87.4312 73.073 91.3903 68.3571 93.6231 65.6997C94.0546 65.1944 94.6737 64.8764 95.3304 64.8202C96.0058 64.7641 96.6625 64.97 97.1879 65.4005C103.117 70.3596 121.054 85.3868 127.002 90.346C128.072 91.2443 128.203 92.835 127.321 93.9017L114.806 108.779ZM95.7431 110.295L98.2012 101.986L99.9272 103.427L98.2763 108.742L103.248 106.215L104.993 107.675L97.2067 111.53L95.7431 110.295ZM109.196 104.943L107.639 106.777L100.471 95.5298L102.01 93.6771L109.196 104.943ZM110.491 97.6632L112.142 92.3483L107.151 94.8749L105.406 93.4151L113.193 89.56L114.656 90.7951L112.198 99.1042L110.491 97.6632Z" fill="white"/>
<path fill-rule="evenodd" clip-rule="evenodd" d="M68.4795 46.5775C65.7428 46.0041 62.9164 46.0041 60.1798 46.5775L59.2786 50.982C57.9396 51.4216 56.6648 52.0344 55.4861 52.8036L51.4711 50.7601C49.3157 52.5366 47.5529 54.7406 46.2965 57.2321L49.1871 60.6814C48.6977 61.9994 48.3827 63.375 48.2506 64.7746L44.1453 66.6307C44.194 69.4194 44.8225 72.1679 45.9921 74.7009L50.4986 74.5973C51.226 75.8011 52.1081 76.9042 53.123 77.8798L52.0191 82.2385C54.2353 83.9389 56.7813 85.1624 59.4968 85.8302L62.225 82.2512C63.622 82.4343 65.0373 82.4343 66.4342 82.2512L69.1624 85.8302C71.8772 85.1624 74.4239 83.9389 76.6401 82.2385L75.5356 77.8798C76.5504 76.9042 77.4325 75.8011 78.1599 74.5973L82.6665 74.7009C83.836 72.1679 84.4646 69.4194 84.5133 66.6307L80.4079 64.7746C80.2765 63.375 79.9616 61.9994 79.4714 60.6814L82.3628 57.2321C81.1057 54.7406 79.3436 52.5366 77.1882 50.7601L73.1732 52.8036C71.9938 52.0344 70.719 51.4216 69.3807 50.982L68.4795 46.5775ZM64.3296 58.693C68.5282 58.693 71.9373 62.093 71.9373 66.2813C71.9373 70.4696 68.5282 73.8697 64.3296 73.8697C60.1303 73.8697 56.7213 70.4696 56.7213 66.2813C56.7213 62.093 60.1303 58.693 64.3296 58.693Z" fill="white"/>
</svg>
