<svg width="455px" height="139px" viewBox="0 0 455 139" version="1.1" xmlns="http://www.w3.org/2000/svg" xmlns:xlink="http://www.w3.org/1999/xlink">
    <g id="Logo-/-RDS" stroke="none" stroke-width="1" fill="none" fill-rule="evenodd">
        <g id="RDS-Logo_DARK" fill-rule="nonzero">
            <path d="M188.313,108.4118 C188.313,107.1144 187.857,106.1143 186.945,105.4115 C186.032,104.7087 184.387,103.9992 182.008,103.2829 C179.63,102.5666 177.738,101.7692 176.332,100.8907 C173.643,99.2013 172.298,96.9984 172.298,94.2819 C172.298,91.9032 173.268,89.9436 175.207,88.4028 C177.146,86.862 179.663,86.092 182.758,86.092 C184.813,86.092 186.644,86.47 188.252,87.227 C189.861,87.9839 191.124,89.0617 192.043,90.4605 C192.962,91.8593 193.422,93.4102 193.422,95.113 L188.313,95.113 C188.313,93.5723 187.83,92.3661 186.864,91.4944 C185.897,90.6227 184.515,90.1868 182.718,90.1868 C181.042,90.1868 179.741,90.545 178.815,91.2613 C177.89,91.9776 177.427,92.9777 177.427,94.2616 C177.427,95.3428 177.927,96.2449 178.927,96.968 C179.927,97.691 181.576,98.3938 183.873,99.0763 C186.171,99.7588 188.016,100.536 189.408,101.4077 C190.8,102.2794 191.82,103.2795 192.469,104.408 C193.118,105.5365 193.442,106.8576 193.442,108.3713 C193.442,110.831 192.499,112.7873 190.614,114.2402 C188.729,115.6931 186.171,116.4195 182.941,116.4195 C180.806,116.4195 178.842,116.0242 177.052,115.2335 C175.261,114.4429 173.869,113.3516 172.876,111.9595 C171.882,110.5675 171.386,108.9457 171.386,107.0941 L176.514,107.0941 C176.514,108.77 177.069,110.0674 178.177,110.9864 C179.285,111.9055 180.873,112.365 182.941,112.365 C184.725,112.365 186.066,112.0035 186.965,111.2804 C187.864,110.5573 188.313,109.6012 188.313,108.4118 Z" id="Fill-1" fill="#FFFFFF"></path>
            <polygon id="Fill-2" fill="#FFFFFF" points="229.062 102.8369 216.939 102.8369 216.939 111.919 231.109 111.919 231.109 116.014 211.81 116.014 211.81 86.497 230.967 86.497 230.967 90.6328 216.939 90.6328 216.939 98.7824 229.062 98.7824"></polygon>
            <path d="M259.998,104.6614 L254.281,104.6614 L254.281,116.014 L249.152,116.014 L249.152,86.497 L259.532,86.497 C262.938,86.497 265.566,87.261 267.418,88.7899 C269.269,90.3184 270.195,92.53 270.195,95.4247 C270.195,97.3996 269.719,99.0532 268.766,100.3855 C267.813,101.7178 266.485,102.7424 264.782,103.4593 L271.412,115.7508 L271.412,116.014 L265.918,116.014 L259.998,104.6614 Z M254.281,100.5258 L259.552,100.5258 C261.282,100.5258 262.634,100.09 263.607,99.2182 C264.58,98.3465 265.066,97.1538 265.066,95.6401 C265.066,94.0589 264.617,92.8358 263.718,91.9708 C262.819,91.1058 261.478,90.6598 259.694,90.6328 L254.281,90.6328 L254.281,100.5258 Z" id="Fill-3" fill="#FFFFFF"></path>
            <polygon id="Fill-4" fill="#FFFFFF" points="299.327 109.5876 306.828 86.497 312.464 86.497 301.841 116.014 296.874 116.014 286.292 86.497 291.908 86.497"></polygon>
            <polygon id="Fill-5" fill="#FFFFFF" points="329.96 116.014 335.0687 116.014 335.0687 86.4972 329.96 86.4972"></polygon>
            <path d="M377.763,106.4049 C377.466,109.5539 376.304,112.0102 374.276,113.7739 C372.249,115.5376 369.553,116.4195 366.188,116.4195 C363.836,116.4195 361.765,115.862 359.974,114.747 C358.183,113.632 356.801,112.0474 355.828,109.9931 C354.855,107.9388 354.348,105.5534 354.308,102.8369 L354.308,100.0798 C354.308,97.2957 354.801,94.8427 355.788,92.7209 C356.774,90.599 358.19,88.9637 360.035,87.8149 C361.88,86.666 364.012,86.092 366.431,86.092 C369.688,86.092 372.31,86.974 374.297,88.7373 C376.283,90.501 377.439,92.9979 377.763,96.228 L372.655,96.228 C372.411,94.1062 371.793,92.5756 370.8,91.6363 C369.806,90.697 368.35,90.2274 366.431,90.2274 C364.201,90.2274 362.488,91.0424 361.292,92.6724 C360.096,94.3025 359.484,96.6935 359.457,99.8454 L359.457,102.4631 C359.457,105.6554 360.028,108.0903 361.17,109.7677 C362.312,111.4452 363.985,112.2839 366.188,112.2839 C368.201,112.2839 369.715,111.8311 370.729,110.9256 C371.742,110.0201 372.384,108.5132 372.655,106.4049 L377.763,106.4049 Z" id="Fill-6" fill="#FFFFFF"></path>
            <polygon id="Fill-7" fill="#FFFFFF" points="413.464 102.8369 401.341 102.8369 401.341 111.919 415.511 111.919 415.511 116.014 396.212 116.014 396.212 86.497 415.369 86.497 415.369 90.6328 401.341 90.6328 401.341 98.7824 413.464 98.7824"></polygon>
            <path d="M448.982,108.4118 C448.982,107.1144 448.526,106.1143 447.614,105.4115 C446.701,104.7087 445.056,103.9992 442.677,103.2829 C440.299,102.5666 438.406,101.7692 437.001,100.8907 C434.311,99.2013 432.967,96.9984 432.967,94.2819 C432.967,91.9032 433.936,89.9436 435.876,88.4028 C437.815,86.862 440.332,86.092 443.427,86.092 C445.482,86.092 447.313,86.47 448.921,87.227 C450.529,87.9839 451.793,89.0617 452.712,90.4605 C453.631,91.8593 454.091,93.4102 454.091,95.113 L448.982,95.113 C448.982,93.5723 448.499,92.3661 447.532,91.4944 C446.566,90.6227 445.184,90.1868 443.387,90.1868 C441.711,90.1868 440.41,90.545 439.484,91.2613 C438.558,91.9776 438.096,92.9777 438.096,94.2616 C438.096,95.3428 438.596,96.2449 439.596,96.968 C440.596,97.691 442.245,98.3938 444.542,99.0763 C446.84,99.7588 448.685,100.536 450.077,101.4077 C451.469,102.2794 452.489,103.2795 453.138,104.408 C453.787,105.5365 454.111,106.8576 454.111,108.3713 C454.111,110.831 453.168,112.7873 451.283,114.2402 C449.397,115.6931 446.84,116.4195 443.61,116.4195 C441.474,116.4195 439.511,116.0242 437.721,115.2335 C435.93,114.4429 434.538,113.3516 433.544,111.9595 C432.551,110.5675 432.054,108.9457 432.054,107.0941 L437.183,107.0941 C437.183,108.77 437.737,110.0674 438.846,110.9864 C439.954,111.9055 441.542,112.365 443.61,112.365 C445.394,112.365 446.735,112.0035 447.634,111.2804 C448.533,110.5573 448.982,109.6012 448.982,108.4118 Z" id="Fill-8" fill="#FFFFFF"></path>
            <path d="M315.723,20.702 L334.691,20.702 C342.458,20.702 348.508,22.81 352.842,27.025 C357.175,31.24 359.342,37.492 359.342,45.78 C359.342,49.995 358.738,53.689 357.53,56.862 C356.323,60.035 354.582,62.711 352.309,64.89 C350.036,67.068 347.265,68.702 343.997,69.792 C340.729,70.881 337.035,71.426 332.915,71.426 L315.723,71.426 L315.723,20.702 Z M333.128,62.403 C335.875,62.403 338.219,62.013 340.161,61.231 C342.103,60.45 343.677,59.325 344.885,57.857 C346.093,56.389 346.981,54.648 347.549,52.635 C348.118,50.622 348.402,48.361 348.402,45.851 C348.402,43.388 348.153,41.15 347.656,39.137 C347.158,37.125 346.365,35.431 345.276,34.058 C344.187,32.685 342.778,31.619 341.049,30.861 C339.32,30.103 337.201,29.724 334.691,29.724 L326.308,29.724 L326.308,62.403 L333.128,62.403 Z" id="Fill-9" fill="#89BC44"></path>
            <path d="M383.638,66.737 C382.17,68.395 380.524,69.744 378.701,70.786 C376.877,71.828 374.521,72.349 371.632,72.349 C369.975,72.349 368.4,72.136 366.908,71.71 C365.416,71.284 364.114,70.62 363.001,69.721 C361.888,68.821 361,67.672 360.337,66.275 C359.674,64.878 359.342,63.209 359.342,61.267 C359.342,58.709 359.91,56.625 361.047,55.015 C362.184,53.405 363.676,52.15 365.523,51.25 C367.37,50.35 369.442,49.711 371.739,49.332 C374.036,48.953 376.368,48.716 378.736,48.621 L383.496,48.408 L383.496,46.561 C383.496,44.288 382.868,42.725 381.613,41.873 C380.358,41.02 378.878,40.594 377.173,40.594 C373.242,40.594 370.993,42.086 370.424,45.069 L361.331,44.217 C361.994,40.333 363.699,37.527 366.446,35.798 C369.193,34.07 372.887,33.205 377.529,33.205 C380.37,33.205 382.786,33.549 384.775,34.236 C386.764,34.922 388.362,35.905 389.57,37.184 C390.778,38.463 391.654,40.014 392.199,41.837 C392.743,43.66 393.016,45.709 393.016,47.982 L393.016,71.426 L383.638,71.426 L383.638,66.737 Z M383.425,54.873 L379.02,55.086 C376.937,55.181 375.255,55.394 373.977,55.726 C372.698,56.057 371.715,56.471 371.028,56.969 C370.342,57.466 369.88,58.046 369.643,58.709 C369.406,59.372 369.288,60.106 369.288,60.912 C369.288,62.143 369.714,63.114 370.567,63.824 C371.419,64.535 372.603,64.89 374.119,64.89 C376.676,64.89 378.76,64.298 380.37,63.114 C381.27,62.451 382.004,61.61 382.572,60.592 C383.141,59.574 383.425,58.307 383.425,56.791 L383.425,54.873 Z" id="Fill-10" fill="#89BC44"></path>
            <path d="M400.191,42.086 L394.365,42.086 L394.365,34.342 L400.191,34.342 L400.191,24.467 L410.136,24.467 L410.136,34.342 L418.661,34.342 L418.661,42.086 L410.136,42.086 L410.136,59.207 C410.136,61.148 410.539,62.463 411.344,63.149 C412.149,63.836 413.191,64.179 414.47,64.179 C415.133,64.179 415.808,64.144 416.495,64.073 C417.181,64.002 417.856,63.872 418.519,63.682 L419.94,70.999 C418.567,71.426 417.229,71.722 415.926,71.887 C414.624,72.053 413.381,72.136 412.197,72.136 C408.124,72.136 405.104,71.165 403.139,69.223 C401.173,67.282 400.191,64.014 400.191,59.42 L400.191,42.086 Z" id="Fill-11" fill="#89BC44"></path>
            <path d="M444.733,66.737 C443.265,68.395 441.619,69.744 439.796,70.786 C437.973,71.828 435.616,72.349 432.727,72.349 C431.07,72.349 429.495,72.136 428.003,71.71 C426.511,71.284 425.209,70.62 424.096,69.721 C422.983,68.821 422.095,67.672 421.432,66.275 C420.769,64.878 420.437,63.209 420.437,61.267 C420.437,58.709 421.006,56.625 422.142,55.015 C423.279,53.405 424.771,52.15 426.618,51.25 C428.465,50.35 430.537,49.711 432.834,49.332 C435.131,48.953 437.464,48.716 439.832,48.621 L444.591,48.408 L444.591,46.561 C444.591,44.288 443.964,42.725 442.709,41.873 C441.454,41.02 439.974,40.594 438.269,40.594 C434.338,40.594 432.088,42.086 431.52,45.069 L422.427,44.217 C423.09,40.333 424.795,37.527 427.541,35.798 C430.288,34.07 433.983,33.205 438.624,33.205 C441.466,33.205 443.881,33.549 445.87,34.236 C447.859,34.922 449.458,35.905 450.665,37.184 C451.873,38.463 452.749,40.014 453.294,41.837 C453.839,43.66 454.111,45.709 454.111,47.982 L454.111,71.426 L444.733,71.426 L444.733,66.737 Z M444.52,54.873 L440.116,55.086 C438.032,55.181 436.351,55.394 435.072,55.726 C433.793,56.057 432.81,56.471 432.124,56.969 C431.437,57.466 430.975,58.046 430.738,58.709 C430.502,59.372 430.383,60.106 430.383,60.912 C430.383,62.143 430.809,63.114 431.662,63.824 C432.514,64.535 433.698,64.89 435.214,64.89 C437.771,64.89 439.855,64.298 441.466,63.114 C442.365,62.451 443.099,61.61 443.668,60.592 C444.236,59.574 444.52,58.307 444.52,56.791 L444.52,54.873 Z" id="Fill-12" fill="#89BC44"></path>
            <path d="M171.386,20.604 L189.359,20.604 C193.337,20.604 196.617,21.066 199.198,21.989 C201.779,22.913 203.804,24.12 205.272,25.612 C206.74,27.104 207.759,28.762 208.327,30.585 C208.895,32.409 209.179,34.196 209.179,35.949 C209.179,39.217 208.587,41.964 207.403,44.19 C206.219,46.415 204.23,48.286 201.436,49.802 L211.737,71.327 L200.299,71.327 L191.774,52.288 L181.829,52.288 L181.829,71.327 L171.386,71.327 L171.386,20.604 Z M190.069,43.479 C191.727,43.479 193.1,43.302 194.19,42.946 C195.279,42.591 196.143,42.094 196.783,41.454 C197.422,40.815 197.86,40.045 198.097,39.146 C198.334,38.246 198.452,37.251 198.452,36.162 C198.452,35.262 198.31,34.398 198.026,33.569 C197.742,32.74 197.256,32.006 196.57,31.367 C195.883,30.727 194.936,30.23 193.728,29.875 C192.52,29.52 190.993,29.342 189.146,29.342 L181.829,29.342 L181.829,43.479 L190.069,43.479 Z" id="Fill-13" fill="#89BC44"></path>
            <path d="M214.223,34.244 L224.169,34.244 L224.169,71.327 L214.223,71.327 L214.223,34.244 Z M214.081,20.604 L224.311,20.604 L224.311,29.555 L214.081,29.555 L214.081,20.604 Z" id="Fill-14" fill="#89BC44"></path>
            <path d="M262.105,57.9 C261.726,62.352 260.199,65.893 257.523,68.521 C254.847,71.15 250.833,72.464 245.481,72.464 C242.356,72.464 239.656,71.99 237.383,71.043 C235.109,70.096 233.251,68.77 231.806,67.065 C230.361,65.36 229.284,63.3 228.574,60.884 C227.863,58.469 227.508,55.793 227.508,52.857 C227.508,49.92 227.922,47.232 228.751,44.793 C229.58,42.354 230.776,40.27 232.339,38.542 C233.902,36.813 235.82,35.475 238.093,34.528 C240.366,33.581 242.971,33.107 245.908,33.107 C248.418,33.107 250.608,33.427 252.479,34.066 C254.35,34.706 255.924,35.594 257.203,36.73 C258.482,37.867 259.477,39.228 260.187,40.815 C260.897,42.402 261.371,44.142 261.608,46.037 L251.591,47.386 C251.354,45.492 250.809,43.965 249.957,42.804 C249.105,41.644 247.636,41.064 245.552,41.064 C244.037,41.064 242.782,41.383 241.787,42.023 C240.793,42.662 239.999,43.526 239.407,44.616 C238.815,45.705 238.401,46.948 238.164,48.345 C237.927,49.743 237.809,51.199 237.809,52.714 C237.809,54.277 237.927,55.769 238.164,57.19 C238.401,58.611 238.804,59.866 239.372,60.955 C239.94,62.045 240.722,62.909 241.716,63.548 C242.711,64.188 243.966,64.507 245.481,64.507 C247.471,64.507 249.01,63.939 250.099,62.802 C251.188,61.666 251.828,60.032 252.017,57.9 L262.105,57.9 Z" id="Fill-15" fill="#89BC44"></path>
            <path d="M265.657,20.604 L275.603,20.604 L275.603,38.932 C277.071,36.943 278.776,35.475 280.718,34.528 C282.66,33.581 284.696,33.107 286.827,33.107 C291.042,33.107 294.168,34.208 296.205,36.411 C298.241,38.613 299.26,42.082 299.26,46.818 L299.26,71.327 L289.314,71.327 L289.314,48.168 C289.314,45.563 288.816,43.787 287.822,42.84 C286.827,41.893 285.501,41.419 283.844,41.419 C282.565,41.419 281.464,41.608 280.54,41.987 C279.617,42.366 278.752,42.911 277.947,43.621 C277.284,44.284 276.728,45.078 276.278,46.001 C275.828,46.925 275.603,47.931 275.603,49.02 L275.603,71.327 L265.657,71.327 L265.657,20.604 Z" id="Fill-16" fill="#89BC44"></path>
            <path d="M89.683,112.5287 L97.187,118.8238 C93.286,121.0443 89.114,122.7514 84.774,123.9022 L80.738,128.1773 C74.576,129.2278 68.28,129.2278 62.118,128.1773 L58.082,123.9022 C54.027,122.827 50.1183,121.2661 46.4404,119.2544 L54.002,112.9079 C59.33,115.274 65.227,116.5889 71.428,116.5889 C77.953,116.5889 84.141,115.1331 89.683,112.5287 Z M52.47,25.07 L52.471,34.95 C38.7016,41.729 29.0064,55.672 28.4339,72.067 C28.2808,76.452 28.7908,80.708 29.8743,84.737 L22.3717,91.0341 C21.6865,89.11 21.1146,87.145 20.6593,85.15 L16.5277,80.967 C15.6928,74.772 15.9125,68.48 17.1775,62.359 L21.5908,58.475 C22.9364,54.032 24.87,49.789 27.3401,45.859 L27.3761,39.98 C31.1664,35.009 35.7706,30.715 40.9938,27.281 L46.861,27.655 C48.68,26.682 50.5531,25.819 52.47,25.07 Z M89.56,24.755 C91.765,25.574 93.916,26.543 95.995,27.655 L101.862,27.281 C107.085,30.715 111.689,35.009 115.48,39.98 L115.516,45.859 C117.986,49.789 119.919,54.032 121.265,58.475 L125.678,62.359 C126.943,68.48 127.163,74.772 126.328,80.967 L122.196,85.15 C121.807,86.857 121.332,88.5425 120.774,90.1988 L113.209,83.853 C114.136,80.087 114.564,76.133 114.422,72.067 C113.838,55.347 103.766,41.177 89.561,34.555 L89.56,24.755 Z" id="Fill-17" fill="#FFFFFF"></path>
            <path d="M71.428,0.093 L93.097,0.093 C94.65,0.093 95.91,1.353 95.91,2.907 C95.91,11.542 95.91,37.608 95.91,46.244 C95.91,46.99 95.613,47.705 95.086,48.233 C94.558,48.761 93.843,49.057 93.097,49.057 C89.248,49.057 82.366,49.057 78.371,49.057 C77.59,49.057 76.846,48.719 76.333,48.129 C75.82,47.539 75.588,46.756 75.696,45.982 C75.696,45.982 75.696,45.982 75.696,45.982 C75.765,45.485 75.989,45.022 76.336,44.659 C77.127,43.831 78.633,42.256 79.69,41.151 C81.063,39.714 81.829,37.803 81.829,35.816 C81.829,35.816 81.829,35.816 81.829,35.816 C81.829,30.277 77.169,27.582 71.428,27.582 C65.687,27.582 61.027,30.277 61.027,35.816 C61.027,35.816 61.027,35.816 61.027,35.816 C61.027,37.803 61.793,39.714 63.166,41.151 C64.223,42.256 65.728,43.831 66.52,44.659 C66.867,45.022 67.091,45.485 67.16,45.982 C67.16,45.982 67.16,45.982 67.16,45.982 C67.268,46.756 67.036,47.539 66.522,48.129 C66.009,48.719 65.266,49.057 64.484,49.057 C60.49,49.057 53.608,49.057 49.7593,49.057 C49.0132,49.057 48.2977,48.761 47.7701,48.233 C47.2425,47.705 46.9461,46.99 46.9461,46.244 C46.9461,37.608 46.9461,11.542 46.9461,2.907 C46.9461,1.353 48.2056,0.093 49.7593,0.093 L71.428,0.093 Z" id="Fill-18" fill="#89BC44"></path>
            <path d="M127.691,120.7507 C127.691,120.7507 117.898,132.4216 113.763,137.3498 C112.764,138.54 110.99,138.6953 109.8,137.6966 C103.184,132.1456 83.217,115.3909 76.602,109.84 C76.03,109.3604 75.672,108.6734 75.607,107.9301 C75.542,107.1869 75.775,106.4482 76.255,105.8767 C78.728,102.9288 83.152,97.6567 85.72,94.5966 C86.222,93.9978 86.959,93.646 87.741,93.632 C88.522,93.6179 89.272,93.943 89.795,94.5233 C89.795,94.5234 89.795,94.5234 89.795,94.5235 C90.132,94.8962 90.342,95.3651 90.397,95.864 C90.523,97.0028 90.762,99.169 90.929,100.6886 C91.147,102.6639 92.118,104.4791 93.641,105.7565 C93.641,105.7566 93.641,105.7566 93.641,105.7567 C97.884,109.317 102.944,107.4789 106.634,103.0814 C110.324,98.6837 111.255,93.3815 107.012,89.8211 C107.012,89.821 107.012,89.821 107.012,89.821 C105.49,88.5436 103.533,87.9025 101.55,88.0309 C100.025,88.1298 97.85,88.2707 96.707,88.3447 C96.206,88.3772 95.707,88.2513 95.282,87.9849 C95.282,87.9848 95.282,87.9848 95.282,87.9847 C94.619,87.5698 94.169,86.888 94.047,86.116 C93.925,85.344 94.144,84.557 94.646,83.959 C97.214,80.898 101.638,75.626 104.111,72.678 C104.591,72.107 105.278,71.749 106.021,71.684 C106.764,71.619 107.503,71.852 108.075,72.332 C114.69,77.883 134.658,94.6374 141.273,100.1883 C142.463,101.187 142.618,102.9614 141.62,104.1516 L127.691,120.7507 Z" id="Fill-19" fill="#89BC44"></path>
            <path d="M15.1645,120.7507 C15.1645,120.7507 5.3715,109.0799 1.2362,104.1516 C0.2375,102.9614 0.3928,101.187 1.5829,100.1883 C8.1983,94.6374 28.1658,77.883 34.7811,72.332 C35.3527,71.852 36.0914,71.619 36.8346,71.684 C37.5779,71.749 38.2649,72.107 38.7445,72.678 C41.218,75.626 45.6418,80.898 48.2096,83.959 C48.712,84.557 48.9305,85.344 48.8086,86.116 C48.6867,86.888 48.2365,87.5698 47.5741,87.9847 C47.574,87.9848 47.5739,87.9848 47.5738,87.9849 C47.1485,88.2513 46.6501,88.3772 46.1492,88.3447 C45.0059,88.2707 42.8312,88.1298 41.3055,88.0309 C39.3224,87.9025 37.3661,88.5436 35.8437,89.821 C35.8437,89.821 35.8437,89.821 35.8436,89.8211 C31.6005,93.3814 32.5321,98.6836 36.222,103.0814 C39.9121,107.4789 44.972,109.317 49.2152,105.7567 C49.2152,105.7566 49.2152,105.7566 49.2152,105.7565 C50.7376,104.4791 51.7087,102.6639 51.9266,100.6886 C52.094,99.169 52.333,97.0028 52.459,95.864 C52.514,95.3651 52.724,94.8962 53.06,94.5235 C53.06,94.5234 53.061,94.5234 53.061,94.5233 C53.584,93.943 54.333,93.6179 55.115,93.632 C55.896,93.646 56.634,93.9978 57.136,94.5966 C59.704,97.6567 64.128,102.9288 66.601,105.8767 C67.081,106.4482 67.314,107.1869 67.249,107.9301 C67.183,108.6734 66.826,109.3604 66.254,109.84 C59.639,115.3909 39.6715,132.1456 33.0561,137.6966 C31.8659,138.6953 30.0915,138.54 29.0928,137.3498 L15.1645,120.7507 Z" id="Fill-20" fill="#89BC44"></path>
            <path d="M83.796,9.35 C83.305,8.236 83.398,6.846 84.437,5.829 C85.001,5.276 85.76,4.942 86.573,4.928 C86.613,4.927 86.612,4.927 86.652,4.928 C88.59,4.962 90.358,7.017 89.56,9.185 C88.988,10.736 87.078,11.702 85.422,11.003 C85.302,10.952 85.187,10.893 85.075,10.826 L79.38,15.952 C79.672,16.631 79.731,17.421 79.437,18.222 C78.868,19.766 76.971,20.745 75.299,20.039 C74.002,19.491 73.194,17.975 73.43,16.542 L68.415,13.531 C67.555,14.262 66.306,14.56 65.176,14.083 C65.052,14.03 64.933,13.969 64.819,13.901 L59.082,19.146 C59.415,19.848 59.501,20.679 59.19,21.521 C58.621,23.066 56.725,24.044 55.053,23.338 C53.194,22.553 52.357,19.802 54.096,18.137 C54.658,17.599 55.404,17.277 56.204,17.263 C56.243,17.263 56.243,17.263 56.283,17.263 C56.804,17.272 57.314,17.432 57.766,17.702 L63.545,12.419 C63.06,11.304 63.162,9.917 64.19,8.909 C64.757,8.354 65.527,8.022 66.327,8.008 C66.366,8.007 66.366,8.007 66.406,8.008 C68.216,8.039 69.882,9.867 69.433,11.863 L74.359,14.821 C74.92,14.294 75.659,13.977 76.45,13.964 C76.49,13.964 76.489,13.964 76.529,13.964 C77.092,13.973 77.64,14.156 78.115,14.462 L83.796,9.35 Z" id="Fill-21" fill="#FFFFFF"></path>
            <path d="M30.0442,120.5887 C29.4609,121.1598 29.1573,121.6843 29.1333,122.1622 C29.1092,122.6401 29.3145,123.138 29.7492,123.656 C30.1356,124.1164 30.5594,124.4024 31.0207,124.5139 C31.4821,124.6253 31.9621,124.4718 32.4609,124.0532 C32.9502,123.6427 33.2001,123.2246 33.2106,122.7989 C33.2212,122.3732 32.9891,121.8773 32.5142,121.3114 L31.669,120.3042 L33.4388,118.8191 L34.3806,119.9414 C35.097,120.7952 35.882,120.8639 36.7358,120.1475 C36.8988,120.0106 37.0346,119.8559 37.143,119.6831 C37.2515,119.5104 37.3166,119.325 37.3383,119.1269 C37.3601,118.9289 37.3297,118.7173 37.2472,118.4923 C37.1647,118.2673 37.0147,118.0254 36.7974,117.7664 C36.4111,117.3059 35.9957,117.0251 35.5512,116.924 C35.1067,116.8229 34.5636,116.9354 33.9218,117.2614 L32.5629,115.116 C33.0478,114.8562 33.5382,114.6614 34.034,114.5314 C34.5297,114.4015 35.0299,114.3741 35.5344,114.4494 C36.0389,114.5246 36.5401,114.7129 37.0382,115.0142 C37.5362,115.3156 38.0308,115.7588 38.5218,116.344 C38.9967,116.9099 39.3416,117.4623 39.5567,118.0011 C39.7718,118.5399 39.8781,119.0514 39.8758719,119.5356 C39.8734,120.0198 39.7651,120.4703 39.5509,120.8871 C39.3366,121.3039 39.0425,121.6692 38.6684,121.9831 C38.1791,122.3936 37.6545,122.6499 37.0945,122.7521 C36.5345,122.8542 35.9366,122.7796 35.3009,122.5285 C35.544,123.3052 35.5555,123.9862 35.3354,124.5714 C35.1154,125.1565 34.7607,125.6544 34.2715,126.0649 C33.8015,126.4593 33.3135,126.7543 32.8075,126.95 C32.3015,127.1458 31.7867,127.2141 31.263,127.1549 C30.7393,127.0958 30.2092,126.9072 29.6726,126.5891 C29.136,126.2711 28.6021,125.7955 28.0708,125.1624 C27.4671,124.443 27.0692,123.7593 26.877,123.1114 C26.6848,122.4635 26.6311,121.8588 26.7157,121.2974 C26.8004,120.7359 26.9943,120.2218 27.2973,119.755 C27.6004,119.2882 27.9405,118.8802 28.3177,118.531 L30.0442,120.5887 Z M18.9502,110.6986 C19.6608,110.8052 20.3506,110.9211 21.0196,111.0463 C21.6887,111.1715 22.3785,111.2874 23.0891,111.394 C23.7821,111.4991 24.3992,111.582 24.9406,111.6426 C25.4819,111.7033 25.9714,111.7217 26.409,111.6978 C26.8466,111.6739 27.2396,111.6016 27.5879,111.4809 C27.9362,111.3603 28.2686,111.1672 28.5852,110.9016 C28.9977,110.5555 29.2372,110.1542 29.3038,109.6979 C29.3704,109.2415 29.2347,108.8119 28.8966,108.409 C28.4941,107.9293 28.0703,107.6434 27.6251,107.5511 C27.1798,107.4588 26.5987,107.5991 25.8817,107.9719 L24.4699,105.8218 C24.9548,105.562 25.4503,105.3587 25.9565,105.2119 C26.4626,105.0651 26.9759,105.0145 27.4964,105.06 C28.0168,105.1055 28.5397,105.2757 29.0649,105.5705 C29.5902,105.8654 30.1185,106.3293 30.6497,106.9624 C31.5834,108.0752 32.0184,109.1487 31.9545,110.1831 C31.8907,111.2174 31.3887,112.129 30.4487,112.9178 C30.0458,113.2559 29.6318,113.5174 29.2068,113.7025 C28.7817,113.8875 28.3216,114.0161 27.8264,114.0883 C27.3312,114.1606 26.7874,114.1796 26.1948,114.1456 C25.6023,114.1115 24.9331,114.0396 24.1872,113.9299 C23.8021,113.8607 23.4151,113.789 23.026,113.715 C22.637,113.641 22.2051,113.5743 21.7303,113.515 L25.1592,117.6014 L23.2227,118.8586 L17.4394,111.9663 L18.9502,110.6986 Z M20.8856,100.6152 L18.0902,99.6507 L18.8237,97.515 L23.5064,99.0046 L24.9432,100.7169 L15.0005,109.0598 L13.2739,107.0022 L20.8856,100.6152 Z" id="Fill-22" fill="#FFFFFF"></path>
            <path d="M106.489,122.6779 L109.222,113.4001 L111.134,115.0048 L109.305,120.948 L114.84,118.1147 L116.782,119.7443 L108.12,124.0462 L106.489,122.6779 Z M121.461,116.6976 L119.732,118.7582 L111.736,106.1882 L113.465,104.1276 L121.461,116.6976 Z M122.893,108.5776 L124.737,102.6469 L119.187,105.4677 L117.245,103.8381 L125.907,99.5362 L127.538,100.9046 L124.806,110.1823 L122.893,108.5776 Z" id="Fill-23" fill="#FFFFFF"></path>
            <path d="M76.047,51.55 C73.001,50.911 69.855,50.911 66.809,51.55 L65.805,56.467 C64.315,56.957 62.896,57.641 61.584,58.5 L57.115,56.219 C54.715,58.202 52.753,60.661 51.3544,63.442 L54.572,67.291 C54.027,68.762 53.677,70.298 53.53,71.86 L48.9601,73.932 C49.0141,77.044 49.7142,80.111 51.0159,82.939 L56.032,82.823 C56.842,84.166 57.824,85.398 58.954,86.486 L57.724,91.3509 C60.191,93.2492 63.026,94.6142 66.048,95.3594 L69.085,91.3653 C70.64,91.5698 72.216,91.5698 73.771,91.3653 L76.808,95.3594 C79.83,94.6142 82.664,93.2492 85.131,91.3509 L83.902,86.486 C85.032,85.398 86.014,84.166 86.824,82.823 L91.84,82.939 C93.142,80.111 93.842,77.044 93.896,73.932 L89.326,71.86 C89.179,70.298 88.829,68.762 88.283,67.291 L91.501,63.442 C90.102,60.661 88.141,58.202 85.741,56.219 L81.272,58.5 C79.96,57.641 78.54,56.957 77.05,56.467 L76.047,51.55 Z M71.428,65.073 C76.102,65.073 79.897,68.867 79.897,73.542 C79.897,78.216 76.102,82.011 71.428,82.011 C66.754,82.011 62.959,78.216 62.959,73.542 C62.959,68.867 66.754,65.073 71.428,65.073 Z" id="Fill-24" fill="#FFFFFF"></path>
        </g>
    </g>
</svg>
